<svg preserveAspectRatio="none" overflow="visible" style="display: block;" width="65" height="65" viewBox="0 0 65 65" fill="none" xmlns="http://www.w3.org/2000/svg">
<g id="Ativo 2 5" clip-path="url(#clip0_0_26)">
<g id="Camada 1">
<path id="Vector" d="M56.6567 44.3513L58.8345 51.7386L51.1588 51.9251L50.6879 59.6147L43.4109 57.1565L40.3471 64.2198L34.3477 59.4138L29.0609 65L25.0607 58.4236L18.1879 61.8593L16.6704 54.3091L9.04161 55.178L10.191 47.5607L2.72457 45.7614L6.40184 38.9986L0 34.7446L5.75949 29.6508L1.19448 23.4581L8.34333 20.6469L6.16547 13.2614L13.8412 13.0731L14.3121 5.38529L21.5891 7.84171L24.6529 0.780188L30.6523 5.58622L35.9391 0L39.9393 6.57458L46.8121 3.14067L48.3296 10.6909L55.9584 9.82204L54.809 17.4375L62.2754 19.2386L58.6 26.0014L65 30.2554L59.2405 35.3474L63.8055 41.5419L56.6567 44.3513Z" fill="#00C800"/>
</g>
<g id="Vector_2">
<path d="M16.9913 21.0036C17.0476 21.0032 17.1039 21.0027 17.1619 21.0023C17.3511 21.0012 17.5402 21.0022 17.7294 21.0033C17.8662 21.0029 18.0029 21.0024 18.1397 21.0018C18.516 21.0006 18.8923 21.0012 19.2686 21.0021C19.6743 21.0028 20.0799 21.0018 20.4855 21.001C21.2804 20.9996 22.0752 20.9999 22.8701 21.0008C23.5159 21.0015 24.1617 21.0015 24.8076 21.0012C24.9453 21.0011 24.9453 21.0011 25.0858 21.0011C25.2723 21.001 25.4589 21.0009 25.6454 21.0008C27.3955 20.9999 29.1457 21.0009 30.8958 21.0025C32.3984 21.0039 33.901 21.0036 35.4035 21.0022C37.1473 21.0006 38.8911 21 40.6348 21.0009C40.8207 21.001 41.0065 21.0011 41.1924 21.0012C41.3296 21.0013 41.3296 21.0013 41.4695 21.0014C42.1148 21.0016 42.76 21.0012 43.4053 21.0005C44.1913 20.9996 44.9774 20.9999 45.7635 21.0015C46.1647 21.0022 46.566 21.0025 46.9673 21.0016C47.3343 21.0007 47.7013 21.0012 48.0684 21.0028C48.2015 21.0031 48.3345 21.0029 48.4676 21.0022C48.648 21.0013 48.8283 21.0022 49.0087 21.0036C49.0868 21.0026 49.0868 21.0026 49.1664 21.0015C49.4278 21.0055 49.5695 21.0398 49.7932 21.1777C50.0156 21.4075 49.9976 21.5617 49.9979 21.876C49.9987 21.9562 49.9987 21.9562 49.9995 22.0381C50.0008 22.2147 49.9993 22.3912 49.9977 22.5679C49.9978 22.6912 49.998 22.8146 49.9983 22.9379C49.9985 23.1967 49.9974 23.4554 49.9953 23.7142C49.9927 24.0441 49.9932 24.3739 49.9946 24.7039C49.9954 24.9588 49.9947 25.2138 49.9936 25.4688C49.9932 25.5903 49.9932 25.7118 49.9937 25.8333C49.9953 26.5007 49.9754 27.0843 49.6474 27.6871C49.6128 27.7536 49.5782 27.8201 49.5425 27.8886C49.0724 28.5977 48.3732 29.0791 47.5287 29.2552C47.4089 29.2601 47.289 29.2616 47.1692 29.2599C47.1088 29.2592 47.0483 29.2585 46.986 29.2578C46.9403 29.257 46.8947 29.2561 46.8476 29.2552C46.8484 29.3278 46.8484 29.3278 46.8492 29.4019C46.8543 29.9157 46.8576 30.4295 46.8601 30.9434C46.8612 31.1339 46.8628 31.3245 46.8648 31.5151C46.9056 35.5318 45.7434 39.0713 42.879 41.9811C40.4182 44.4476 37.0967 45.9636 33.5729 46C30.4739 46.0068 27.4798 45.2419 24.9789 43.3684C24.9144 43.3203 24.8498 43.2723 24.7833 43.2228C22.3797 41.3785 20.7509 38.9614 19.8854 36.0878C19.8679 36.0313 19.8505 35.9748 19.8325 35.9166C19.4276 34.4961 19.4249 33.059 19.4394 31.5962C19.4418 31.3313 19.4428 31.0664 19.4439 30.8015C19.4463 30.286 19.4502 29.7706 19.455 29.2552C19.3968 29.2677 19.3385 29.2802 19.2786 29.2931C18.5069 29.4335 17.7505 29.0387 17.1187 28.6438C16.7838 28.396 16.5488 28.0466 16.3525 27.6871C16.3275 27.6414 16.3025 27.5958 16.2768 27.5488C15.9833 26.9341 16.0044 26.3165 16.007 25.6528C16.0066 25.529 16.0061 25.4053 16.0056 25.2815C16.0048 25.0235 16.0051 24.7656 16.0062 24.5076C16.0075 24.1772 16.0057 23.8468 16.0031 23.5164C16.0014 23.2614 16.0015 23.0064 16.0022 22.7515C16.0022 22.6296 16.0017 22.5077 16.0006 22.3858C15.9993 22.2158 16.0004 22.046 16.0021 21.876C16.0022 21.7795 16.0022 21.6829 16.0023 21.5834C16.0498 21.3399 16.0498 21.3399 16.2068 21.1777C16.4753 21.0121 16.6845 20.9995 16.9913 21.0036ZM17.2606 22.3106C16.976 24.6501 16.976 24.6501 17.7146 27.3884C18.1468 27.8118 18.4939 28.0042 19.1166 28.005C19.1654 28.0052 19.2142 28.0055 19.2645 28.0058C19.4282 28.0065 19.5919 28.0061 19.7557 28.0057C19.8742 28.006 19.9927 28.0064 20.1112 28.0068C20.437 28.0077 20.7628 28.0077 21.0887 28.0075C21.44 28.0074 21.7913 28.0083 22.1427 28.009C22.8311 28.0102 23.5195 28.0106 24.2079 28.0107C24.7674 28.0108 25.3269 28.0111 25.8864 28.0116C27.4723 28.0129 29.0582 28.0136 30.6441 28.0135C30.7724 28.0134 30.7724 28.0134 30.9032 28.0134C30.9889 28.0134 31.0745 28.0134 31.1627 28.0134C32.5505 28.0134 33.9383 28.0148 35.326 28.0169C36.7506 28.019 38.1752 28.0201 39.5998 28.0199C40.3997 28.0199 41.1997 28.0203 41.9996 28.0219C42.6807 28.0233 43.3618 28.0236 44.0428 28.0226C44.3904 28.0221 44.7378 28.0221 45.0854 28.0234C45.4036 28.0246 45.7217 28.0243 46.0399 28.023C46.155 28.0228 46.27 28.0231 46.385 28.0239C47.0778 28.0286 47.6079 28.0112 48.1524 27.5404C48.2135 27.4674 48.2135 27.4674 48.2759 27.393C48.3179 27.3446 48.3598 27.2962 48.403 27.2463C48.6261 26.9268 48.6854 26.6284 48.711 26.245C48.7167 26.1652 48.7223 26.0854 48.7282 26.0031C48.7319 25.9428 48.7356 25.8824 48.7394 25.8203C48.6781 25.8199 48.6169 25.8196 48.5537 25.8193C47.0633 25.8116 45.5729 25.8035 44.0824 25.7949C43.3617 25.7908 42.6409 25.7868 41.9201 25.7831C41.292 25.7799 40.6638 25.7765 40.0356 25.7727C39.703 25.7707 39.3703 25.7689 39.0377 25.7673C38.7246 25.7658 38.4115 25.764 38.0984 25.762C37.9835 25.7613 37.8686 25.7607 37.7537 25.7603C37.5967 25.7596 37.4398 25.7586 37.2829 25.7574C37.1951 25.7569 37.1072 25.7564 37.0168 25.7559C36.8042 25.7465 36.6119 25.7188 36.4051 25.6709C36.3392 25.4758 36.3152 25.3493 36.3106 25.1482C36.3076 25.072 36.3076 25.072 36.3046 24.9942C36.3385 24.7969 36.3939 24.745 36.5565 24.6255C36.7747 24.5968 36.7747 24.5968 37.0463 24.5957C37.0962 24.5952 37.1462 24.5947 37.1976 24.5942C37.3653 24.5928 37.5329 24.593 37.7006 24.5932C37.8207 24.5925 37.9407 24.5918 38.0608 24.5909C38.3871 24.5888 38.7133 24.5881 39.0396 24.5877C39.3804 24.587 39.7213 24.585 40.0621 24.5832C40.7077 24.5799 41.3533 24.5778 41.9989 24.5761C42.7338 24.5741 43.4687 24.5708 44.2036 24.5674C45.7156 24.5605 47.2275 24.5553 48.7394 24.5508C48.7394 23.8116 48.7394 23.0723 48.7394 22.3106C38.3514 22.3106 27.9634 22.3106 17.2606 22.3106ZM20.7414 29.2552C20.6285 32.6304 20.6285 32.6304 21.1718 35.8638C21.191 35.9287 21.2102 35.9937 21.2301 36.0607C21.7981 37.907 22.8066 39.5105 24.1466 40.9042C24.1819 40.9415 24.2173 40.9788 24.2537 41.0173C26.4316 43.3041 29.5327 44.6332 32.705 44.7335C36.093 44.7964 39.1616 43.6629 41.6264 41.3522C41.6667 41.3149 41.707 41.2776 41.7485 41.2391C44.0067 39.1351 45.2539 36.3952 45.5612 33.3622C45.5612 32.0069 45.5612 30.6516 45.5612 29.2552C37.3707 29.2552 29.1801 29.2552 20.7414 29.2552Z" fill="white"/>
<path d="M37.1618 32.6902C38.5629 33.8659 39.1476 35.4726 39.2992 37.2379C39.3426 38.7929 38.7195 40.2737 37.6915 41.4269C37.6159 41.5122 37.6159 41.5122 37.5387 41.5993C36.5121 42.6838 35.0683 43.3215 33.5719 43.3923C31.7033 43.4456 30.1035 42.9039 28.7151 41.6369C27.544 40.4147 26.97 38.8547 26.9863 37.1872C27.0312 35.7989 27.4919 34.5185 28.3841 33.4369C28.4298 33.3786 28.4756 33.3204 28.5227 33.2604C29.3612 32.2518 30.7689 31.5248 32.081 31.3606C33.9522 31.1928 35.6766 31.5149 37.1618 32.6902ZM29.4059 34.2472C29.0315 34.7168 28.746 35.1918 28.5354 35.7517C28.4993 35.8429 28.4993 35.8429 28.4624 35.9358C28.0448 37.1684 28.3132 38.5052 28.8476 39.6534C29.5033 40.8669 30.5309 41.5574 31.8292 41.9589C33.1851 42.2961 34.4934 42.0663 35.7099 41.4251C36.8019 40.7569 37.5257 39.7435 37.8482 38.5228C38.1437 37.2653 37.974 36.0381 37.3321 34.907C36.5652 33.7419 35.4375 32.9249 34.0594 32.6155C33.8549 32.5769 33.663 32.5572 33.454 32.5408C33.4048 32.5369 33.3557 32.5329 33.305 32.5289C31.8282 32.4663 30.3683 33.1622 29.4059 34.2472Z" fill="white"/>
<path d="M34.8492 34.781C34.9452 34.8549 34.9452 34.8549 35.0431 34.9303C35.1038 34.975 35.1646 35.0197 35.2272 35.0657C35.8605 35.5984 36.1198 36.3615 36.1991 37.1568C36.2282 37.9636 35.9935 38.6939 35.4971 39.336C34.8304 40.0415 34.0971 40.3648 33.1229 40.4048C32.3112 40.3808 31.5526 40.1159 30.9542 39.5685C30.2481 38.8154 30.0783 37.9789 30.1009 36.9809C30.144 36.1385 30.5605 35.5166 31.165 34.949C32.195 34.0945 33.7279 34.1372 34.8492 34.781ZM31.794 36.1951C31.4611 36.6062 31.3045 37.02 31.3485 37.5564C31.4446 38.1129 31.7234 38.4943 32.1676 38.8413C32.6327 39.09 33.0372 39.1978 33.5616 39.0659C34.1748 38.8587 34.498 38.5078 34.8113 37.9593C34.9737 37.422 34.9323 37.0014 34.6798 36.4988C34.4221 36.0739 34.0035 35.7583 33.5297 35.6024C32.8252 35.5259 32.2783 35.6727 31.794 36.1951Z" fill="white"/>
<path d="M34.4377 24.5508C34.6269 24.6628 34.6269 24.6628 34.7404 24.8495C34.7818 25.0574 34.7832 25.2391 34.7404 25.4469C34.5944 25.655 34.4932 25.7259 34.2533 25.8109C34.0193 25.8222 33.8864 25.7805 33.681 25.6709C33.4947 25.3951 33.4788 25.1696 33.5297 24.8495C33.7447 24.4959 34.0536 24.4762 34.4377 24.5508Z" fill="white"/>
</g>
</g>
<defs>
<clipPath id="clip0_0_26">
<rect width="65" height="65" fill="white"/>
</clipPath>
</defs>
</svg>
